<mxfile host="Electron" modified="2023-12-07T18:18:13.211Z" agent="Mozilla/5.0 (Windows NT 10.0; Win64; x64) AppleWebKit/537.36 (KHTML, like Gecko) draw.io/22.1.2 Chrome/114.0.5735.289 Electron/25.9.4 Safari/537.36" etag="PVu2uyJyarYXnt_w3m6V" version="22.1.2" type="device">
  <diagram name="Sayfa -1" id="CtZf0nuOI0-Tspg5KwZv">
    <mxGraphModel dx="835" dy="731" grid="1" gridSize="10" guides="1" tooltips="1" connect="1" arrows="1" fold="1" page="0" pageScale="1" pageWidth="827" pageHeight="1169" math="0" shadow="0">
      <root>
        <mxCell id="0" />
        <mxCell id="1" parent="0" />
        <mxCell id="fEpYYVd0up-Zeu851Meh-1" value="AIRPORT" style="whiteSpace=wrap;html=1;align=center;" vertex="1" parent="1">
          <mxGeometry x="1277.83" y="303.5" width="100" height="40" as="geometry" />
        </mxCell>
        <mxCell id="fEpYYVd0up-Zeu851Meh-2" value="" style="endArrow=none;html=1;rounded=0;entryX=0;entryY=0.5;entryDx=0;entryDy=0;exitX=1;exitY=0.5;exitDx=0;exitDy=0;" edge="1" parent="1" source="fEpYYVd0up-Zeu851Meh-51" target="fEpYYVd0up-Zeu851Meh-65">
          <mxGeometry relative="1" as="geometry">
            <mxPoint x="1297" y="591" as="sourcePoint" />
            <mxPoint x="1100" y="375.86" as="targetPoint" />
          </mxGeometry>
        </mxCell>
        <mxCell id="fEpYYVd0up-Zeu851Meh-3" value="1" style="resizable=0;html=1;whiteSpace=wrap;align=right;verticalAlign=bottom;" connectable="0" vertex="1" parent="fEpYYVd0up-Zeu851Meh-2">
          <mxGeometry x="1" relative="1" as="geometry">
            <mxPoint x="-9" as="offset" />
          </mxGeometry>
        </mxCell>
        <mxCell id="fEpYYVd0up-Zeu851Meh-4" value="ARRIVAL_AIRPORT" style="shape=rhombus;perimeter=rhombusPerimeter;whiteSpace=wrap;html=1;align=center;" vertex="1" parent="1">
          <mxGeometry x="1330" y="420" width="175" height="60" as="geometry" />
        </mxCell>
        <mxCell id="fEpYYVd0up-Zeu851Meh-5" value="DEPARTURE_AIRPORT" style="shape=rhombus;perimeter=rhombusPerimeter;whiteSpace=wrap;html=1;align=center;" vertex="1" parent="1">
          <mxGeometry x="1150" y="417.5" width="172.5" height="65" as="geometry" />
        </mxCell>
        <mxCell id="fEpYYVd0up-Zeu851Meh-6" value="" style="endArrow=none;html=1;rounded=0;entryX=0.5;entryY=0;entryDx=0;entryDy=0;exitX=0.25;exitY=1;exitDx=0;exitDy=0;" edge="1" parent="1" source="fEpYYVd0up-Zeu851Meh-1" target="fEpYYVd0up-Zeu851Meh-5">
          <mxGeometry relative="1" as="geometry">
            <mxPoint x="1095" y="445" as="sourcePoint" />
            <mxPoint x="1085" y="615" as="targetPoint" />
          </mxGeometry>
        </mxCell>
        <mxCell id="fEpYYVd0up-Zeu851Meh-7" value="1" style="resizable=0;html=1;whiteSpace=wrap;align=right;verticalAlign=bottom;" connectable="0" vertex="1" parent="fEpYYVd0up-Zeu851Meh-6">
          <mxGeometry x="1" relative="1" as="geometry">
            <mxPoint x="23" as="offset" />
          </mxGeometry>
        </mxCell>
        <mxCell id="fEpYYVd0up-Zeu851Meh-8" value="" style="endArrow=none;html=1;rounded=0;entryX=0.5;entryY=0;entryDx=0;entryDy=0;exitX=0.75;exitY=1;exitDx=0;exitDy=0;" edge="1" parent="1" source="fEpYYVd0up-Zeu851Meh-1" target="fEpYYVd0up-Zeu851Meh-4">
          <mxGeometry relative="1" as="geometry">
            <mxPoint x="1448.36" y="420" as="sourcePoint" />
            <mxPoint x="1268.36" y="510" as="targetPoint" />
          </mxGeometry>
        </mxCell>
        <mxCell id="fEpYYVd0up-Zeu851Meh-9" value="1" style="resizable=0;html=1;whiteSpace=wrap;align=right;verticalAlign=bottom;" connectable="0" vertex="1" parent="fEpYYVd0up-Zeu851Meh-8">
          <mxGeometry x="1" relative="1" as="geometry">
            <mxPoint x="18" as="offset" />
          </mxGeometry>
        </mxCell>
        <mxCell id="fEpYYVd0up-Zeu851Meh-10" value="Airport_code" style="ellipse;whiteSpace=wrap;html=1;align=center;fontStyle=4;" vertex="1" parent="1">
          <mxGeometry x="1142.83" y="243.5" width="100" height="40" as="geometry" />
        </mxCell>
        <mxCell id="fEpYYVd0up-Zeu851Meh-11" value="Location" style="ellipse;whiteSpace=wrap;html=1;align=center;" vertex="1" parent="1">
          <mxGeometry x="1404.79" y="243.5" width="100" height="40" as="geometry" />
        </mxCell>
        <mxCell id="fEpYYVd0up-Zeu851Meh-12" value="Airport_name" style="ellipse;whiteSpace=wrap;html=1;align=center;" vertex="1" parent="1">
          <mxGeometry x="1277.83" y="203.5" width="100" height="40" as="geometry" />
        </mxCell>
        <mxCell id="fEpYYVd0up-Zeu851Meh-13" value="" style="endArrow=none;html=1;rounded=0;entryX=0;entryY=0.5;entryDx=0;entryDy=0;exitX=1;exitY=0.5;exitDx=0;exitDy=0;" edge="1" parent="1" source="fEpYYVd0up-Zeu851Meh-10" target="fEpYYVd0up-Zeu851Meh-1">
          <mxGeometry relative="1" as="geometry">
            <mxPoint x="1195.47" y="333.5" as="sourcePoint" />
            <mxPoint x="1205.47" y="403.5" as="targetPoint" />
          </mxGeometry>
        </mxCell>
        <mxCell id="fEpYYVd0up-Zeu851Meh-14" value="" style="endArrow=none;html=1;rounded=0;exitX=0.5;exitY=1;exitDx=0;exitDy=0;entryX=0.5;entryY=0;entryDx=0;entryDy=0;" edge="1" parent="1" source="fEpYYVd0up-Zeu851Meh-12" target="fEpYYVd0up-Zeu851Meh-1">
          <mxGeometry relative="1" as="geometry">
            <mxPoint x="1235.47" y="273.5" as="sourcePoint" />
            <mxPoint x="1395.47" y="273.5" as="targetPoint" />
          </mxGeometry>
        </mxCell>
        <mxCell id="fEpYYVd0up-Zeu851Meh-15" value="" style="endArrow=none;html=1;rounded=0;exitX=0;exitY=0.5;exitDx=0;exitDy=0;entryX=1;entryY=0.5;entryDx=0;entryDy=0;" edge="1" parent="1" source="fEpYYVd0up-Zeu851Meh-11" target="fEpYYVd0up-Zeu851Meh-1">
          <mxGeometry relative="1" as="geometry">
            <mxPoint x="1235.47" y="273.5" as="sourcePoint" />
            <mxPoint x="1395.47" y="273.5" as="targetPoint" />
          </mxGeometry>
        </mxCell>
        <mxCell id="fEpYYVd0up-Zeu851Meh-16" value="CUSTOMER" style="whiteSpace=wrap;html=1;align=center;" vertex="1" parent="1">
          <mxGeometry x="1105.2900000000002" y="790" width="100" height="40" as="geometry" />
        </mxCell>
        <mxCell id="fEpYYVd0up-Zeu851Meh-17" value="Customer_id" style="ellipse;whiteSpace=wrap;html=1;align=center;fontStyle=4;" vertex="1" parent="1">
          <mxGeometry x="995" y="725" width="100" height="40" as="geometry" />
        </mxCell>
        <mxCell id="fEpYYVd0up-Zeu851Meh-18" value="Customer_name" style="ellipse;whiteSpace=wrap;html=1;align=center;" vertex="1" parent="1">
          <mxGeometry x="1105.2900000000002" y="700" width="100" height="40" as="geometry" />
        </mxCell>
        <mxCell id="fEpYYVd0up-Zeu851Meh-19" value="Data" style="ellipse;whiteSpace=wrap;html=1;align=center;" vertex="1" parent="1">
          <mxGeometry x="1235.8300000000002" y="820" width="105" height="40" as="geometry" />
        </mxCell>
        <mxCell id="fEpYYVd0up-Zeu851Meh-20" value="" style="endArrow=none;html=1;rounded=0;entryX=0;entryY=0.5;entryDx=0;entryDy=0;exitX=0.5;exitY=1;exitDx=0;exitDy=0;" edge="1" parent="1" source="fEpYYVd0up-Zeu851Meh-17" target="fEpYYVd0up-Zeu851Meh-16">
          <mxGeometry relative="1" as="geometry">
            <mxPoint x="1130.2900000000002" y="725" as="sourcePoint" />
            <mxPoint x="1290.2900000000002" y="725" as="targetPoint" />
          </mxGeometry>
        </mxCell>
        <mxCell id="fEpYYVd0up-Zeu851Meh-21" value="" style="endArrow=none;html=1;rounded=0;entryX=1;entryY=1;entryDx=0;entryDy=0;exitX=0;exitY=0.5;exitDx=0;exitDy=0;" edge="1" parent="1" source="fEpYYVd0up-Zeu851Meh-19" target="fEpYYVd0up-Zeu851Meh-16">
          <mxGeometry relative="1" as="geometry">
            <mxPoint x="1130.2900000000002" y="795" as="sourcePoint" />
            <mxPoint x="1290.2900000000002" y="795" as="targetPoint" />
          </mxGeometry>
        </mxCell>
        <mxCell id="fEpYYVd0up-Zeu851Meh-22" value="" style="endArrow=none;html=1;rounded=0;exitX=0;exitY=0;exitDx=0;exitDy=0;entryX=1;entryY=1;entryDx=0;entryDy=0;" edge="1" parent="1" source="fEpYYVd0up-Zeu851Meh-24" target="fEpYYVd0up-Zeu851Meh-19">
          <mxGeometry relative="1" as="geometry">
            <mxPoint x="1520.2900000000002" y="885" as="sourcePoint" />
            <mxPoint x="1360.2900000000002" y="855" as="targetPoint" />
          </mxGeometry>
        </mxCell>
        <mxCell id="fEpYYVd0up-Zeu851Meh-23" value="" style="endArrow=none;html=1;rounded=0;entryX=1;entryY=0;entryDx=0;entryDy=0;exitX=0;exitY=0.5;exitDx=0;exitDy=0;" edge="1" parent="1" source="fEpYYVd0up-Zeu851Meh-26" target="fEpYYVd0up-Zeu851Meh-19">
          <mxGeometry relative="1" as="geometry">
            <mxPoint x="1590.289999999987" y="865" as="sourcePoint" />
            <mxPoint x="1480.2900000000002" y="785" as="targetPoint" />
          </mxGeometry>
        </mxCell>
        <mxCell id="fEpYYVd0up-Zeu851Meh-24" value="Preferences" style="ellipse;shape=doubleEllipse;margin=3;whiteSpace=wrap;html=1;align=center;" vertex="1" parent="1">
          <mxGeometry x="1340.8300000000002" y="890" width="100" height="40" as="geometry" />
        </mxCell>
        <mxCell id="fEpYYVd0up-Zeu851Meh-25" value="Transportation_history" style="ellipse;shape=doubleEllipse;margin=3;whiteSpace=wrap;html=1;align=center;fontSize=11;" vertex="1" parent="1">
          <mxGeometry x="1185" y="900" width="130" height="40" as="geometry" />
        </mxCell>
        <mxCell id="fEpYYVd0up-Zeu851Meh-26" value="Searches" style="ellipse;shape=doubleEllipse;margin=3;whiteSpace=wrap;html=1;align=center;" vertex="1" parent="1">
          <mxGeometry x="1362.5000000000002" y="800" width="100" height="40" as="geometry" />
        </mxCell>
        <mxCell id="fEpYYVd0up-Zeu851Meh-27" value="" style="endArrow=none;html=1;rounded=0;entryX=0.5;entryY=1;entryDx=0;entryDy=0;" edge="1" parent="1" source="fEpYYVd0up-Zeu851Meh-16" target="fEpYYVd0up-Zeu851Meh-18">
          <mxGeometry relative="1" as="geometry">
            <mxPoint x="1110.2900000000002" y="835" as="sourcePoint" />
            <mxPoint x="1270.2900000000002" y="835" as="targetPoint" />
          </mxGeometry>
        </mxCell>
        <mxCell id="fEpYYVd0up-Zeu851Meh-28" value="Phone" style="ellipse;whiteSpace=wrap;html=1;align=center;" vertex="1" parent="1">
          <mxGeometry x="1220.8300000000002" y="710" width="100" height="40" as="geometry" />
        </mxCell>
        <mxCell id="fEpYYVd0up-Zeu851Meh-29" value="" style="endArrow=none;html=1;rounded=0;entryX=0.5;entryY=1;entryDx=0;entryDy=0;exitX=1;exitY=0;exitDx=0;exitDy=0;" edge="1" parent="1" source="fEpYYVd0up-Zeu851Meh-16" target="fEpYYVd0up-Zeu851Meh-28">
          <mxGeometry relative="1" as="geometry">
            <mxPoint x="1190.2900000000002" y="725" as="sourcePoint" />
            <mxPoint x="1350.2900000000002" y="725" as="targetPoint" />
          </mxGeometry>
        </mxCell>
        <mxCell id="fEpYYVd0up-Zeu851Meh-30" value="SEAT" style="shape=ext;margin=3;double=1;whiteSpace=wrap;html=1;align=center;" vertex="1" parent="1">
          <mxGeometry x="825" y="910" width="100" height="40" as="geometry" />
        </mxCell>
        <mxCell id="fEpYYVd0up-Zeu851Meh-31" value="RESERVATION" style="shape=rhombus;double=1;perimeter=rhombusPerimeter;whiteSpace=wrap;html=1;align=center;fontSize=11;" vertex="1" parent="1">
          <mxGeometry x="815" y="790" width="120" height="60" as="geometry" />
        </mxCell>
        <mxCell id="fEpYYVd0up-Zeu851Meh-32" value="&lt;span style=&quot;border-bottom: 1px dotted&quot;&gt;Seat_number&lt;/span&gt;" style="ellipse;whiteSpace=wrap;html=1;align=center;" vertex="1" parent="1">
          <mxGeometry x="960" y="910" width="100" height="40" as="geometry" />
        </mxCell>
        <mxCell id="fEpYYVd0up-Zeu851Meh-33" value="" style="endArrow=none;html=1;rounded=0;entryX=0.5;entryY=0;entryDx=0;entryDy=0;exitX=0.5;exitY=1;exitDx=0;exitDy=0;" edge="1" parent="1" source="fEpYYVd0up-Zeu851Meh-55" target="fEpYYVd0up-Zeu851Meh-31">
          <mxGeometry relative="1" as="geometry">
            <mxPoint x="810" y="660" as="sourcePoint" />
            <mxPoint x="1020" y="740" as="targetPoint" />
          </mxGeometry>
        </mxCell>
        <mxCell id="fEpYYVd0up-Zeu851Meh-34" value="M" style="resizable=0;html=1;whiteSpace=wrap;align=right;verticalAlign=bottom;" connectable="0" vertex="1" parent="fEpYYVd0up-Zeu851Meh-33">
          <mxGeometry x="1" relative="1" as="geometry">
            <mxPoint x="-4" y="1" as="offset" />
          </mxGeometry>
        </mxCell>
        <mxCell id="fEpYYVd0up-Zeu851Meh-35" value="" style="endArrow=none;html=1;rounded=0;exitX=1;exitY=0.5;exitDx=0;exitDy=0;entryX=0;entryY=0.5;entryDx=0;entryDy=0;" edge="1" parent="1" source="fEpYYVd0up-Zeu851Meh-30" target="fEpYYVd0up-Zeu851Meh-32">
          <mxGeometry relative="1" as="geometry">
            <mxPoint x="815.29" y="850" as="sourcePoint" />
            <mxPoint x="975.2899999999998" y="850" as="targetPoint" />
          </mxGeometry>
        </mxCell>
        <mxCell id="fEpYYVd0up-Zeu851Meh-36" value="" style="shape=link;html=1;rounded=0;entryX=0.5;entryY=1;entryDx=0;entryDy=0;exitX=0.5;exitY=0;exitDx=0;exitDy=0;" edge="1" parent="1" source="fEpYYVd0up-Zeu851Meh-30" target="fEpYYVd0up-Zeu851Meh-31">
          <mxGeometry relative="1" as="geometry">
            <mxPoint x="555" y="880" as="sourcePoint" />
            <mxPoint x="715" y="880" as="targetPoint" />
          </mxGeometry>
        </mxCell>
        <mxCell id="fEpYYVd0up-Zeu851Meh-37" value="N" style="resizable=0;html=1;whiteSpace=wrap;align=right;verticalAlign=bottom;" connectable="0" vertex="1" parent="fEpYYVd0up-Zeu851Meh-36">
          <mxGeometry x="1" relative="1" as="geometry">
            <mxPoint x="-5" y="20" as="offset" />
          </mxGeometry>
        </mxCell>
        <mxCell id="fEpYYVd0up-Zeu851Meh-39" style="edgeStyle=orthogonalEdgeStyle;rounded=0;orthogonalLoop=1;jettySize=auto;html=1;exitX=0.5;exitY=1;exitDx=0;exitDy=0;" edge="1" parent="1">
          <mxGeometry relative="1" as="geometry">
            <mxPoint x="1323.63" y="525.86" as="sourcePoint" />
            <mxPoint x="1323.63" y="525.86" as="targetPoint" />
          </mxGeometry>
        </mxCell>
        <mxCell id="fEpYYVd0up-Zeu851Meh-40" value="" style="shape=link;html=1;rounded=0;entryX=0.5;entryY=1;entryDx=0;entryDy=0;exitX=0.25;exitY=0;exitDx=0;exitDy=0;" edge="1" parent="1" source="fEpYYVd0up-Zeu851Meh-51" target="fEpYYVd0up-Zeu851Meh-5">
          <mxGeometry relative="1" as="geometry">
            <mxPoint x="1325" y="475" as="sourcePoint" />
            <mxPoint x="1405" y="545" as="targetPoint" />
          </mxGeometry>
        </mxCell>
        <mxCell id="fEpYYVd0up-Zeu851Meh-41" value="N" style="resizable=0;html=1;whiteSpace=wrap;align=right;verticalAlign=bottom;" connectable="0" vertex="1" parent="fEpYYVd0up-Zeu851Meh-40">
          <mxGeometry x="1" relative="1" as="geometry">
            <mxPoint x="-5" y="25" as="offset" />
          </mxGeometry>
        </mxCell>
        <mxCell id="fEpYYVd0up-Zeu851Meh-42" value="AIRCRAFT" style="whiteSpace=wrap;html=1;align=center;" vertex="1" parent="1">
          <mxGeometry x="825.5" y="305.25" width="100" height="40" as="geometry" />
        </mxCell>
        <mxCell id="fEpYYVd0up-Zeu851Meh-43" value="ASSIGNED" style="shape=rhombus;perimeter=rhombusPerimeter;whiteSpace=wrap;html=1;align=center;" vertex="1" parent="1">
          <mxGeometry x="815" y="422.5" width="120" height="60" as="geometry" />
        </mxCell>
        <mxCell id="fEpYYVd0up-Zeu851Meh-46" value="" style="endArrow=none;html=1;rounded=0;exitX=0.5;exitY=1;exitDx=0;exitDy=0;entryX=0.5;entryY=0;entryDx=0;entryDy=0;" edge="1" parent="1" source="fEpYYVd0up-Zeu851Meh-42" target="fEpYYVd0up-Zeu851Meh-43">
          <mxGeometry relative="1" as="geometry">
            <mxPoint x="760" y="370" as="sourcePoint" />
            <mxPoint x="825" y="370" as="targetPoint" />
            <Array as="points" />
          </mxGeometry>
        </mxCell>
        <mxCell id="fEpYYVd0up-Zeu851Meh-47" value="1" style="resizable=0;html=1;whiteSpace=wrap;align=right;verticalAlign=bottom;" connectable="0" vertex="1" parent="fEpYYVd0up-Zeu851Meh-46">
          <mxGeometry x="1" relative="1" as="geometry" />
        </mxCell>
        <mxCell id="fEpYYVd0up-Zeu851Meh-48" value="" style="shape=link;html=1;rounded=0;entryX=0.5;entryY=1;entryDx=0;entryDy=0;exitX=0.5;exitY=0;exitDx=0;exitDy=0;" edge="1" parent="1" source="fEpYYVd0up-Zeu851Meh-55" target="fEpYYVd0up-Zeu851Meh-43">
          <mxGeometry relative="1" as="geometry">
            <mxPoint x="785" y="590" as="sourcePoint" />
            <mxPoint x="570" y="620" as="targetPoint" />
          </mxGeometry>
        </mxCell>
        <mxCell id="fEpYYVd0up-Zeu851Meh-49" value="N" style="resizable=0;html=1;whiteSpace=wrap;align=right;verticalAlign=bottom;" connectable="0" vertex="1" parent="fEpYYVd0up-Zeu851Meh-48">
          <mxGeometry x="1" relative="1" as="geometry">
            <mxPoint x="15" y="20" as="offset" />
          </mxGeometry>
        </mxCell>
        <mxCell id="fEpYYVd0up-Zeu851Meh-51" value="SCHEDULED_TA_ FLIGHTS" style="whiteSpace=wrap;html=1;align=center;" vertex="1" parent="1">
          <mxGeometry x="1245.83" y="590" width="170" height="40" as="geometry" />
        </mxCell>
        <mxCell id="fEpYYVd0up-Zeu851Meh-52" value="" style="endArrow=none;html=1;rounded=0;exitX=0;exitY=0.75;exitDx=0;exitDy=0;" edge="1" parent="1" source="fEpYYVd0up-Zeu851Meh-16">
          <mxGeometry relative="1" as="geometry">
            <mxPoint x="945.2899999999998" y="820" as="sourcePoint" />
            <mxPoint x="930" y="820" as="targetPoint" />
          </mxGeometry>
        </mxCell>
        <mxCell id="fEpYYVd0up-Zeu851Meh-53" value="1" style="resizable=0;html=1;whiteSpace=wrap;align=right;verticalAlign=bottom;" connectable="0" vertex="1" parent="fEpYYVd0up-Zeu851Meh-52">
          <mxGeometry x="1" relative="1" as="geometry">
            <mxPoint x="25" y="-10" as="offset" />
          </mxGeometry>
        </mxCell>
        <mxCell id="fEpYYVd0up-Zeu851Meh-54" value="" style="endArrow=none;html=1;rounded=0;entryX=0.5;entryY=1;entryDx=0;entryDy=0;exitX=0.5;exitY=0;exitDx=0;exitDy=0;" edge="1" parent="1" source="fEpYYVd0up-Zeu851Meh-25" target="fEpYYVd0up-Zeu851Meh-19">
          <mxGeometry relative="1" as="geometry">
            <mxPoint x="1145.2900000000002" y="875" as="sourcePoint" />
            <mxPoint x="1305.2900000000002" y="875" as="targetPoint" />
          </mxGeometry>
        </mxCell>
        <mxCell id="fEpYYVd0up-Zeu851Meh-55" value="FLIGHT_INSTANCE" style="shape=ext;margin=3;double=1;whiteSpace=wrap;html=1;align=center;" vertex="1" parent="1">
          <mxGeometry x="800" y="590" width="150" height="40" as="geometry" />
        </mxCell>
        <mxCell id="fEpYYVd0up-Zeu851Meh-56" value="" style="shape=link;html=1;rounded=0;exitX=1;exitY=0.5;exitDx=0;exitDy=0;entryX=0;entryY=0.5;entryDx=0;entryDy=0;" edge="1" parent="1" source="fEpYYVd0up-Zeu851Meh-55" target="fEpYYVd0up-Zeu851Meh-60">
          <mxGeometry relative="1" as="geometry">
            <mxPoint x="853.75" y="604.6" as="sourcePoint" />
            <mxPoint x="1013.75" y="604.6" as="targetPoint" />
          </mxGeometry>
        </mxCell>
        <mxCell id="fEpYYVd0up-Zeu851Meh-57" value="N" style="resizable=0;html=1;whiteSpace=wrap;align=right;verticalAlign=bottom;" connectable="0" vertex="1" parent="fEpYYVd0up-Zeu851Meh-56">
          <mxGeometry x="1" relative="1" as="geometry" />
        </mxCell>
        <mxCell id="fEpYYVd0up-Zeu851Meh-58" value="" style="endArrow=none;html=1;rounded=0;exitX=0;exitY=0.5;exitDx=0;exitDy=0;entryX=1;entryY=0.5;entryDx=0;entryDy=0;" edge="1" parent="1" source="fEpYYVd0up-Zeu851Meh-51" target="fEpYYVd0up-Zeu851Meh-60">
          <mxGeometry relative="1" as="geometry">
            <mxPoint x="930" y="560" as="sourcePoint" />
            <mxPoint x="1120" y="590" as="targetPoint" />
          </mxGeometry>
        </mxCell>
        <mxCell id="fEpYYVd0up-Zeu851Meh-59" value="1" style="resizable=0;html=1;whiteSpace=wrap;align=right;verticalAlign=bottom;" connectable="0" vertex="1" parent="fEpYYVd0up-Zeu851Meh-58">
          <mxGeometry x="1" relative="1" as="geometry" />
        </mxCell>
        <mxCell id="fEpYYVd0up-Zeu851Meh-60" value="INSTANCE_OF" style="shape=rhombus;double=1;perimeter=rhombusPerimeter;whiteSpace=wrap;html=1;align=center;" vertex="1" parent="1">
          <mxGeometry x="1032" y="580" width="120" height="60" as="geometry" />
        </mxCell>
        <mxCell id="fEpYYVd0up-Zeu851Meh-61" value="Flight_code" style="ellipse;whiteSpace=wrap;html=1;align=center;fontStyle=4;" vertex="1" parent="1">
          <mxGeometry x="1382.79" y="670" width="125" height="40" as="geometry" />
        </mxCell>
        <mxCell id="fEpYYVd0up-Zeu851Meh-62" value="" style="endArrow=none;html=1;rounded=0;exitX=0.75;exitY=0;exitDx=0;exitDy=0;entryX=0;entryY=1;entryDx=0;entryDy=0;" edge="1" parent="1" source="fEpYYVd0up-Zeu851Meh-55" target="fEpYYVd0up-Zeu851Meh-90">
          <mxGeometry relative="1" as="geometry">
            <mxPoint x="830" y="540" as="sourcePoint" />
            <mxPoint x="943.5000000000002" y="540.5999999999999" as="targetPoint" />
          </mxGeometry>
        </mxCell>
        <mxCell id="fEpYYVd0up-Zeu851Meh-63" value="" style="endArrow=none;html=1;rounded=0;exitX=0.75;exitY=1;exitDx=0;exitDy=0;entryX=0;entryY=0;entryDx=0;entryDy=0;" edge="1" parent="1" source="fEpYYVd0up-Zeu851Meh-51" target="fEpYYVd0up-Zeu851Meh-61">
          <mxGeometry relative="1" as="geometry">
            <mxPoint x="1350" y="560" as="sourcePoint" />
            <mxPoint x="1390" y="690" as="targetPoint" />
          </mxGeometry>
        </mxCell>
        <mxCell id="fEpYYVd0up-Zeu851Meh-64" value="FARE" style="shape=ext;margin=3;double=1;whiteSpace=wrap;html=1;align=center;" vertex="1" parent="1">
          <mxGeometry x="1680.0000000000002" y="590" width="100" height="40" as="geometry" />
        </mxCell>
        <mxCell id="fEpYYVd0up-Zeu851Meh-65" value="HAS" style="shape=rhombus;double=1;perimeter=rhombusPerimeter;whiteSpace=wrap;html=1;align=center;" vertex="1" parent="1">
          <mxGeometry x="1490.0000000000002" y="580" width="120" height="60" as="geometry" />
        </mxCell>
        <mxCell id="fEpYYVd0up-Zeu851Meh-66" value="" style="endArrow=none;html=1;rounded=0;exitX=0.25;exitY=1;exitDx=0;exitDy=0;entryX=0.5;entryY=0;entryDx=0;entryDy=0;" edge="1" parent="1" source="fEpYYVd0up-Zeu851Meh-64" target="fEpYYVd0up-Zeu851Meh-72">
          <mxGeometry relative="1" as="geometry">
            <mxPoint x="1743.3600000000001" y="495" as="sourcePoint" />
            <mxPoint x="1803.3599999999838" y="635" as="targetPoint" />
          </mxGeometry>
        </mxCell>
        <mxCell id="fEpYYVd0up-Zeu851Meh-67" style="edgeStyle=orthogonalEdgeStyle;rounded=0;orthogonalLoop=1;jettySize=auto;html=1;exitX=0.5;exitY=1;exitDx=0;exitDy=0;" edge="1" parent="1">
          <mxGeometry relative="1" as="geometry">
            <mxPoint x="1448.3600000000001" y="690" as="sourcePoint" />
            <mxPoint x="1448.3600000000001" y="690" as="targetPoint" />
          </mxGeometry>
        </mxCell>
        <mxCell id="fEpYYVd0up-Zeu851Meh-68" value="" style="shape=link;html=1;rounded=0;entryX=1;entryY=0.5;entryDx=0;entryDy=0;exitX=0;exitY=0.5;exitDx=0;exitDy=0;" edge="1" parent="1" source="fEpYYVd0up-Zeu851Meh-64" target="fEpYYVd0up-Zeu851Meh-65">
          <mxGeometry relative="1" as="geometry">
            <mxPoint x="1568.3600000000001" y="500" as="sourcePoint" />
            <mxPoint x="1728.3600000000001" y="500" as="targetPoint" />
          </mxGeometry>
        </mxCell>
        <mxCell id="fEpYYVd0up-Zeu851Meh-69" value="N" style="resizable=0;html=1;whiteSpace=wrap;align=right;verticalAlign=bottom;" connectable="0" vertex="1" parent="fEpYYVd0up-Zeu851Meh-68">
          <mxGeometry x="1" relative="1" as="geometry">
            <mxPoint y="-10" as="offset" />
          </mxGeometry>
        </mxCell>
        <mxCell id="fEpYYVd0up-Zeu851Meh-70" value="&lt;span style=&quot;border-bottom: 1px dotted; font-size: 11px;&quot;&gt;Fare_code&lt;/span&gt;" style="ellipse;whiteSpace=wrap;html=1;align=center;fontSize=11;" vertex="1" parent="1">
          <mxGeometry x="1740.0000000000002" y="670" width="100" height="40" as="geometry" />
        </mxCell>
        <mxCell id="fEpYYVd0up-Zeu851Meh-71" value="" style="endArrow=none;html=1;rounded=0;exitX=0.75;exitY=1;exitDx=0;exitDy=0;entryX=0.5;entryY=0;entryDx=0;entryDy=0;" edge="1" parent="1" source="fEpYYVd0up-Zeu851Meh-64" target="fEpYYVd0up-Zeu851Meh-70">
          <mxGeometry relative="1" as="geometry">
            <mxPoint x="1684.0700000000002" y="520.86" as="sourcePoint" />
            <mxPoint x="1818.7146609406732" y="580.0021356237306" as="targetPoint" />
          </mxGeometry>
        </mxCell>
        <mxCell id="fEpYYVd0up-Zeu851Meh-72" value="Amount" style="ellipse;whiteSpace=wrap;html=1;align=center;" vertex="1" parent="1">
          <mxGeometry x="1630.29" y="670" width="100" height="40" as="geometry" />
        </mxCell>
        <mxCell id="fEpYYVd0up-Zeu851Meh-73" value="" style="shape=link;html=1;rounded=0;entryX=0.5;entryY=1;entryDx=0;entryDy=0;exitX=0.75;exitY=0;exitDx=0;exitDy=0;" edge="1" parent="1" source="fEpYYVd0up-Zeu851Meh-51" target="fEpYYVd0up-Zeu851Meh-4">
          <mxGeometry relative="1" as="geometry">
            <mxPoint x="1450" y="540" as="sourcePoint" />
            <mxPoint x="1610" y="540" as="targetPoint" />
          </mxGeometry>
        </mxCell>
        <mxCell id="fEpYYVd0up-Zeu851Meh-74" value="N" style="resizable=0;html=1;whiteSpace=wrap;align=right;verticalAlign=bottom;" connectable="0" vertex="1" parent="fEpYYVd0up-Zeu851Meh-73">
          <mxGeometry x="1" relative="1" as="geometry">
            <mxPoint x="18" y="20" as="offset" />
          </mxGeometry>
        </mxCell>
        <mxCell id="fEpYYVd0up-Zeu851Meh-76" value="" style="endArrow=none;html=1;rounded=0;entryX=0.25;entryY=0;entryDx=0;entryDy=0;exitX=1;exitY=1;exitDx=0;exitDy=0;" edge="1" parent="1" source="fEpYYVd0up-Zeu851Meh-91" target="fEpYYVd0up-Zeu851Meh-55">
          <mxGeometry relative="1" as="geometry">
            <mxPoint x="790.0000000000002" y="540" as="sourcePoint" />
            <mxPoint x="710" y="570" as="targetPoint" />
          </mxGeometry>
        </mxCell>
        <mxCell id="fEpYYVd0up-Zeu851Meh-77" value="Arr_time" style="ellipse;whiteSpace=wrap;html=1;align=center;" vertex="1" parent="1">
          <mxGeometry x="1490" y="350" width="100" height="40" as="geometry" />
        </mxCell>
        <mxCell id="fEpYYVd0up-Zeu851Meh-78" value="" style="endArrow=none;html=1;rounded=0;exitX=1;exitY=0;exitDx=0;exitDy=0;entryX=0;entryY=1;entryDx=0;entryDy=0;" edge="1" parent="1" source="fEpYYVd0up-Zeu851Meh-4" target="fEpYYVd0up-Zeu851Meh-77">
          <mxGeometry relative="1" as="geometry">
            <mxPoint x="1665.36" y="345" as="sourcePoint" />
            <mxPoint x="1666.7199999999998" y="360" as="targetPoint" />
          </mxGeometry>
        </mxCell>
        <mxCell id="fEpYYVd0up-Zeu851Meh-79" value="Dep_time" style="ellipse;whiteSpace=wrap;html=1;align=center;" vertex="1" parent="1">
          <mxGeometry x="1070" y="360" width="100" height="40" as="geometry" />
        </mxCell>
        <mxCell id="fEpYYVd0up-Zeu851Meh-80" value="" style="endArrow=none;html=1;rounded=0;exitX=0;exitY=0;exitDx=0;exitDy=0;entryX=1;entryY=1;entryDx=0;entryDy=0;" edge="1" parent="1" source="fEpYYVd0up-Zeu851Meh-5" target="fEpYYVd0up-Zeu851Meh-79">
          <mxGeometry relative="1" as="geometry">
            <mxPoint x="1060" y="407.5" as="sourcePoint" />
            <mxPoint x="1016" y="698.5" as="targetPoint" />
          </mxGeometry>
        </mxCell>
        <mxCell id="fEpYYVd0up-Zeu851Meh-90" value="Available_seats" style="ellipse;whiteSpace=wrap;html=1;align=center;" vertex="1" parent="1">
          <mxGeometry x="945" y="510" width="100" height="40" as="geometry" />
        </mxCell>
        <mxCell id="fEpYYVd0up-Zeu851Meh-91" value="&lt;span style=&quot;border-bottom: 1px dotted&quot;&gt;Flight_time&lt;/span&gt;" style="ellipse;whiteSpace=wrap;html=1;align=center;" vertex="1" parent="1">
          <mxGeometry x="715" y="510" width="100" height="40" as="geometry" />
        </mxCell>
        <mxCell id="fEpYYVd0up-Zeu851Meh-92" value="Seat_capacity" style="ellipse;whiteSpace=wrap;html=1;align=center;direction=west;" vertex="1" parent="1">
          <mxGeometry x="825" y="223.5" width="100" height="40" as="geometry" />
        </mxCell>
        <mxCell id="fEpYYVd0up-Zeu851Meh-93" value="Aircraft_id" style="ellipse;whiteSpace=wrap;html=1;align=center;fontStyle=4;" vertex="1" parent="1">
          <mxGeometry x="710" y="263.5" width="100" height="40" as="geometry" />
        </mxCell>
        <mxCell id="fEpYYVd0up-Zeu851Meh-94" value="Aircraft_type" style="ellipse;whiteSpace=wrap;html=1;align=center;" vertex="1" parent="1">
          <mxGeometry x="950" y="265.25" width="95" height="40" as="geometry" />
        </mxCell>
        <mxCell id="fEpYYVd0up-Zeu851Meh-96" value="" style="endArrow=none;html=1;rounded=0;entryX=0;entryY=0;entryDx=0;entryDy=0;exitX=1;exitY=0.5;exitDx=0;exitDy=0;" edge="1" parent="1" source="fEpYYVd0up-Zeu851Meh-93" target="fEpYYVd0up-Zeu851Meh-42">
          <mxGeometry relative="1" as="geometry">
            <mxPoint x="640" y="420" as="sourcePoint" />
            <mxPoint x="820" y="350" as="targetPoint" />
          </mxGeometry>
        </mxCell>
        <mxCell id="fEpYYVd0up-Zeu851Meh-97" value="" style="endArrow=none;html=1;rounded=0;entryX=0.5;entryY=0;entryDx=0;entryDy=0;exitX=0.5;exitY=0;exitDx=0;exitDy=0;" edge="1" parent="1" source="fEpYYVd0up-Zeu851Meh-42" target="fEpYYVd0up-Zeu851Meh-92">
          <mxGeometry relative="1" as="geometry">
            <mxPoint x="650" y="210" as="sourcePoint" />
            <mxPoint x="810" y="210" as="targetPoint" />
          </mxGeometry>
        </mxCell>
        <mxCell id="fEpYYVd0up-Zeu851Meh-98" value="" style="endArrow=none;html=1;rounded=0;exitX=1;exitY=0;exitDx=0;exitDy=0;entryX=0;entryY=0.5;entryDx=0;entryDy=0;" edge="1" parent="1" source="fEpYYVd0up-Zeu851Meh-42" target="fEpYYVd0up-Zeu851Meh-94">
          <mxGeometry relative="1" as="geometry">
            <mxPoint x="990" y="180" as="sourcePoint" />
            <mxPoint x="930" y="250" as="targetPoint" />
          </mxGeometry>
        </mxCell>
      </root>
    </mxGraphModel>
  </diagram>
</mxfile>
